<?xml version="1.0" encoding="utf-8"?>
<!-- Generator: Adobe Illustrator 21.0.0, SVG Export Plug-In . SVG Version: 6.00 Build 0)  -->
<svg version="1.1" xmlns="http://www.w3.org/2000/svg" xmlns:xlink="http://www.w3.org/1999/xlink" x="0px" y="0px"
	 viewBox="0 0 296.4 296.4" style="enable-background:new 0 0 296.4 296.4;" xml:space="preserve">
<style type="text/css">
	.st0{fill:#D9534F;}
	.st1{fill:#D9534F;stroke:#FFFFFF;stroke-width:10;stroke-miterlimit:10;}
</style>
<g id="Background">
</g>
<g id="Symbol">
	<g>
		<g>
			<path class="st0" d="M148.2,296.4L0,148.2L148.2,0l148.2,148.2L148.2,296.4z M20.2,148.2l128,128l128-128l-128-128L20.2,148.2z"
				/>
		</g>
		<polygon class="st0" points="131.9,188 79.2,135.4 38.3,176.4 34.9,173 79.2,128.6 131.9,181.2 195.6,117.5 256.3,178.2
			252.9,181.6 195.6,124.3 		"/>
		<path class="st0" d="M129.6,114c-9.8,0-17.7-7.9-17.7-17.7s7.9-17.7,17.7-17.7s17.7,7.9,17.7,17.7S139.3,114,129.6,114z
			 M129.6,83.4c-7.1,0-12.9,5.8-12.9,12.9s5.8,12.9,12.9,12.9c7.1,0,12.9-5.8,12.9-12.9S136.7,83.4,129.6,83.4z"/>
		<polygon class="st0" points="217.9,171.2 206,159.3 194.5,170.8 182.8,159.1 171.1,170.8 158.4,158.1 161.8,154.7 171.1,164
			182.8,152.4 194.5,164.1 206,152.6 217.9,164.5 228.5,153.8 231.9,157.2 		"/>
		<polygon class="st0" points="90.4,171.2 78.5,159.3 67,170.8 53.7,157.4 57,154 67,164.1 78.5,152.6 90.4,164.5 101.1,153.8
			104.4,157.2 		"/>
		<path class="st1" d="M102.8,155.5"/>
	</g>
</g>
<g id="Text">
</g>
</svg>
