<?xml version="1.0" ?><!DOCTYPE svg  PUBLIC '-//W3C//DTD SVG 1.1//EN'  'http://www.w3.org/Graphics/SVG/1.1/DTD/svg11.dtd'><svg enable-background="new 0 0 128 128" id="Слой_1" version="1.1" viewBox="0 0 128 128" xml:space="preserve" xmlns="http://www.w3.org/2000/svg" xmlns:xlink="http://www.w3.org/1999/xlink"><g><path d="M92.181,65.421c-6.065,0-11,4.935-11,11s4.935,11,11,11s11-4.935,11-11S98.246,65.421,92.181,65.421z    M92.181,85.421c-4.963,0-9-4.038-9-9s4.037-9,9-9s9,4.038,9,9S97.144,85.421,92.181,85.421z" fill="#323638"/><path d="M35.5,108c-1.654,0-3-1.346-3-3V23c0-1.654,1.346-3,3-3h57c1.654,0,3,1.346,3,3v31.618   c0.708,0.273,1.379,0.635,2,1.077V23c0-2.757-2.243-5-5-5h-57c-2.757,0-5,2.243-5,5v82c0,2.757,2.243,5,5,5h54.018l-2.067-2H35.5z" fill="#323638"/><path d="M86.5,28h-45c-0.552,0-1,0.448-1,1s0.448,1,1,1h45c0.552,0,1-0.448,1-1S87.052,28,86.5,28z" fill="#323638"/><path d="M86.5,38h-45c-0.552,0-1,0.448-1,1s0.448,1,1,1h45c0.552,0,1-0.448,1-1S87.052,38,86.5,38z" fill="#323638"/><path d="M87.5,49c0-0.552-0.448-1-1-1h-45c-0.552,0-1,0.448-1,1s0.448,1,1,1h45C87.052,50,87.5,49.552,87.5,49z" fill="#323638"/><path d="M40.5,59c0,0.552,0.448,1,1,1h35.758c0.618-0.784,1.362-1.458,2.201-2H41.5C40.948,58,40.5,58.448,40.5,59z   " fill="#323638"/><path d="M109.309,74.865c0.728-1.252,0.889-2.759,0.44-4.136c-0.447-1.377-1.463-2.502-2.787-3.087   c-1.016-0.449-1.717-1.414-1.83-2.518c-0.267-2.611-2.444-4.58-5.064-4.58c-0.36,0-0.724,0.039-1.08,0.116   c-1.079,0.232-2.228-0.144-2.96-0.962C95.062,58.619,93.678,58,92.23,58c-1.448,0-2.832,0.619-3.798,1.697   c-0.732,0.818-1.882,1.193-2.96,0.962c-0.356-0.077-0.72-0.116-1.08-0.116c-2.621,0-4.799,1.969-5.065,4.58   c-0.112,1.104-0.813,2.069-1.829,2.518c-1.324,0.585-2.34,1.71-2.787,3.087c-0.448,1.377-0.287,2.884,0.44,4.137   c0.558,0.959,0.558,2.152,0,3.112c-0.728,1.252-0.889,2.759-0.44,4.136c0.447,1.376,1.463,2.502,2.787,3.087   c1.016,0.449,1.717,1.414,1.829,2.518c0.103,1.008,0.495,1.915,1.083,2.656l-2.491,10.466c-0.084,0.35,0.027,0.718,0.291,0.963   c0.265,0.245,0.64,0.33,0.982,0.222l5.908-1.864l4.452,4.308c0.194,0.188,0.444,0.281,0.695,0.281c0.262,0,0.522-0.102,0.719-0.305   c0.384-0.397,0.373-1.03-0.023-1.414l-4.88-4.722c-0.265-0.256-0.647-0.347-0.996-0.235l-4.795,1.513l1.865-7.834   c0.683,0.339,1.443,0.546,2.255,0.546c0.36,0,0.724-0.039,1.08-0.116c1.078-0.235,2.227,0.143,2.96,0.962   c0.583,0.652,1.322,1.133,2.133,1.414l3.195,14.654c0.078,0.354,0.341,0.639,0.688,0.744c0.095,0.029,0.192,0.043,0.289,0.043   c0.256,0,0.506-0.098,0.695-0.281l4.452-4.308l5.908,1.864c0.34,0.108,0.711,0.026,0.976-0.215   c0.264-0.241,0.379-0.604,0.302-0.953l-3.369-15.358c0.776-0.798,1.308-1.841,1.43-3.03c0.113-1.105,0.814-2.07,1.83-2.519   c1.324-0.585,2.34-1.71,2.787-3.087c0.448-1.377,0.287-2.884-0.44-4.137C108.751,77.018,108.751,75.825,109.309,74.865z    M99.919,103.325c-0.351-0.111-0.732-0.021-0.996,0.235l-3.59,3.474L92.67,94.819c1.285-0.112,2.491-0.706,3.358-1.675   c0.733-0.819,1.882-1.194,2.96-0.961c0.356,0.077,0.72,0.116,1.08,0.116c0.652,0,1.277-0.123,1.852-0.346l2.829,12.896   L99.919,103.325z M107.58,78.982c0.441,0.761,0.539,1.677,0.268,2.513c-0.272,0.836-0.89,1.521-1.694,1.876   c-1.671,0.738-2.824,2.326-3.012,4.144c-0.184,1.805-1.929,3.104-3.732,2.712c-1.768-0.38-3.667,0.236-4.872,1.583   c-0.587,0.656-1.428,1.031-2.307,1.032c-0.88,0-1.721-0.376-2.308-1.032c-0.966-1.079-2.351-1.698-3.798-1.698   c-0.36,0-0.722,0.039-1.074,0.115c-0.218,0.047-0.439,0.071-0.659,0.071c-1.591,0-2.912-1.196-3.074-2.783   c-0.186-1.818-1.34-3.406-3.011-4.144c-0.805-0.355-1.422-1.04-1.694-1.876c-0.271-0.836-0.174-1.752,0.268-2.513   c0.919-1.58,0.919-3.543,0-5.123c-0.441-0.761-0.539-1.677-0.268-2.513c0.272-0.836,0.89-1.521,1.694-1.876   c1.671-0.738,2.825-2.326,3.011-4.144c0.162-1.586,1.483-2.783,3.075-2.783c0.219,0,0.44,0.024,0.658,0.071   c0.353,0.076,0.714,0.115,1.074,0.115c1.447,0,2.832-0.619,3.798-1.698C90.51,60.376,91.351,60,92.23,60   c0.879,0,1.72,0.376,2.307,1.031c1.205,1.348,3.104,1.967,4.872,1.583c1.801-0.39,3.548,0.908,3.732,2.713   c0.187,1.818,1.341,3.406,3.012,4.144c0.805,0.355,1.422,1.04,1.694,1.876c0.271,0.836,0.174,1.752-0.268,2.513   C106.661,75.439,106.661,77.403,107.58,78.982z" fill="#323638"/></g></svg>