<?xml version="1.0" ?><svg enable-background="new 0 0 64 64" version="1.1" viewBox="0 0 64 64" xml:space="preserve" xmlns="http://www.w3.org/2000/svg" xmlns:xlink="http://www.w3.org/1999/xlink"><g id="row_4"/><g id="row_3"/><g id="row_2"/><g id="row_1"><g id="certificate"><path d="M1,54V10c0-0.6,0.5-1,1-1H62c0.6,0,1,0.5,1,1V54c0,0.6-0.5,1-1,1H2C1.5,55,1,54.5,1,54z" fill="#FBC02D"/><path d="M32,50.5c-2.6,0-5-0.5-7.2-1.5c-0.8-0.3-1.7-0.5-2.6-0.5h-6.7l-0.8,0.8c-0.4,0.4-1,0.4-1.4,0l-6.6-6.5    c-0.4-0.4-0.4-1,0-1.4l0.8-0.8v-3.8c0-0.5-0.2-1.1-0.6-1.5c-0.8-0.8-1.4-2-1.4-3.2c0-1.3,0.5-2.4,1.4-3.2c0.4-0.4,0.6-0.9,0.6-1.5    v-3.8l-0.8-0.8c-0.4-0.4-0.4-1,0-1.4l6.6-6.6c0.4-0.4,1-0.4,1.4,0l0.8,0.8h6.7c0.9,0,1.8-0.2,2.6-0.5c2.2-0.9,4.7-1.5,7.2-1.5    s5,0.5,7.2,1.5c0.8,0.4,1.7,0.5,2.6,0.5h6.7l0.8-0.8c0.4-0.4,1-0.4,1.4,0l6.5,6.6c0.4,0.4,0.4,1,0,1.4l-0.8,0.8v3.8    c0,0.6,0.2,1.1,0.6,1.5c0.8,0.8,1.4,2,1.4,3.2c0,1.3-0.5,2.4-1.4,3.2c-0.4,0.4-0.6,0.9-0.6,1.5v3.8l0.8,0.8c0.4,0.4,0.4,1,0,1.4    l-6.6,6.6c-0.4,0.4-1,0.4-1.4,0l-0.8-0.8h-6.7c-0.9,0-1.8,0.2-2.6,0.5C37,50,34.6,50.5,32,50.5z" fill="#FFFDE7"/><path d="M39,41.9l-0.1-0.3L37,40.5l0.2-2l0-0.3L37,38c-0.1-0.1-0.3-0.2-0.5-0.2l-2,0.2l-1-1.7    C33.4,36.1,33.2,36,33,36l-0.3,0l-1.6,1.5l-1.9-0.9h-0.1c-0.3,0-0.5,0.2-0.6,0.5l-0.4,1.9l-1.9,0.4l-0.3,0.1l-0.1,0.2    c-0.1,0.2-0.1,0.4,0,0.6l0.8,1.8l-1.3,1.5C25,43.7,25,43.9,25,44.1l0.1,0.3l1.9,1.1l-0.2,2l0,0.3L27,48c0.1,0.1,0.3,0.2,0.5,0.2    l2-0.2l1,1.7l0.2,0.3l0.6,0l1.6-1.5l1.9,0.9h0.1c0.3,0,0.5-0.2,0.6-0.5l0.4-1.9l1.9-0.4l0.3-0.1l0.1-0.2c0.1-0.2,0.1-0.4,0-0.6    l-0.8-1.8l1.3-1.5C39,42.3,39,42.1,39,41.9z" fill="#F44336"/><circle cx="32" cy="43" fill="#D32F2F" r="3.5"/><circle cx="32" cy="43" fill="#D32F2F" r="3.5" stroke="#C41F16" stroke-dasharray="5,1" stroke-miterlimit="10"/><path d="M32,13H5v19v19h27h27V32V13H32z M56.8,41.1c0.4,0.4,0.4,1,0,1.4l-6.5,6.4c-0.4,0.4-1,0.4-1.4,0l-0.7-0.8    h-6.5c-0.9,0-1.8,0.2-2.6,0.5C36.9,49.5,34.5,50,32,50s-4.9-0.5-7.1-1.5c-0.8-0.3-1.7-0.5-2.6-0.5h-6.6L15,48.8    c-0.4,0.4-1,0.4-1.4,0l-6.4-6.4c-0.4-0.4-0.4-1,0-1.4l0.8-0.8v-3.7c0-0.5-0.2-1-0.6-1.4C6.5,34.3,6,33.2,6,32    c0-1.2,0.5-2.3,1.3-3.1c0.4-0.4,0.6-0.9,0.6-1.4v-3.7l-0.8-0.8c-0.4-0.4-0.4-1,0-1.4l6.5-6.4c0.4-0.4,1-0.4,1.4,0l0.7,0.8h6.5    c0.9,0,1.8-0.2,2.6-0.5c2.2-0.9,4.6-1.5,7.1-1.5s4.9,0.5,7.1,1.5c0.8,0.3,1.7,0.5,2.6,0.5h6.6l0.7-0.7c0.4-0.4,1-0.4,1.4,0    l6.4,6.4c0.4,0.4,0.4,1,0,1.4l-0.8,0.8v3.7c0,0.5,0.2,1,0.6,1.4c0.8,0.8,1.3,1.9,1.3,3.1c0,1.2-0.5,2.3-1.3,3.1    c-0.4,0.4-0.6,0.9-0.6,1.4v3.7L56.8,41.1z" fill="#AED581"/><path d="M5.5,32c0,1.3,0.5,2.4,1.4,3.2c0.4,0.4,0.6,0.9,0.6,1.5v3.8    l-0.8,0.8c-0.4,0.4-0.4,1,0,1.4l6.6,6.5c0.4,0.4,1,0.4,1.4,0l0.8-0.8h6.7c0.9,0,1.8,0.2,2.6,0.5c2.2,1,4.7,1.5,7.2,1.5    s5-0.5,7.2-1.5c0.8-0.3,1.7-0.5,2.6-0.5h6.7l0.8,0.8c0.4,0.4,1,0.4,1.4,0l6.6-6.6c0.4-0.4,0.4-1,0-1.4l-0.8-0.8v-3.8    c0-0.5,0.2-1.1,0.6-1.5c0.8-0.8,1.4-2,1.4-3.2c0-1.3-0.5-2.4-1.4-3.2c-0.4-0.4-0.6-0.9-0.6-1.5v-3.8l0.8-0.8c0.4-0.4,0.4-1,0-1.4    l-6.5-6.6c-0.4-0.4-1-0.4-1.4,0l-0.8,0.8h-6.7c-0.9,0-1.8-0.2-2.6-0.5C37,14,34.6,13.5,32,13.5S27,14,24.8,15    c-0.8,0.4-1.7,0.5-2.6,0.5h-6.7l-0.8-0.8c-0.4-0.4-1-0.4-1.4,0l-6.6,6.6c-0.4,0.4-0.4,1,0,1.4l0.8,0.8v3.8c0,0.6-0.2,1.1-0.6,1.5    C6,29.6,5.5,30.7,5.5,32z" fill="none" stroke="#7CB342" stroke-miterlimit="10"/><g><line fill="none" stroke="#37474F" stroke-miterlimit="10" x1="13" x2="22" y1="41.5" y2="41.5"/><line fill="none" stroke="#37474F" stroke-miterlimit="10" x1="42" x2="51" y1="41.5" y2="41.5"/><line fill="none" stroke="#37474F" stroke-miterlimit="10" stroke-width="2" x1="32" x2="24" y1="29" y2="29"/><line fill="none" stroke="#37474F" stroke-miterlimit="10" stroke-width="2" x1="46" x2="34" y1="29" y2="29"/><line fill="none" stroke="#37474F" stroke-miterlimit="10" stroke-width="2" x1="22" x2="18" y1="29" y2="29"/><line fill="none" stroke="#37474F" stroke-miterlimit="10" stroke-width="2" x1="18" x2="30" y1="33" y2="33"/><line fill="none" stroke="#37474F" stroke-miterlimit="10" stroke-width="2" x1="32" x2="42" y1="33" y2="33"/><path d="M13,24c5.8-2.6,12.2-4,19-4s13.2,1.4,19,4" fill="none" stroke="#37474F" stroke-miterlimit="10" stroke-width="4"/></g></g></g></svg>