<?xml version="1.0" ?><!DOCTYPE svg  PUBLIC '-//W3C//DTD SVG 1.1//EN'  'http://www.w3.org/Graphics/SVG/1.1/DTD/svg11.dtd'><svg enable-background="new 0 0 75 75" height="75px" id="Layer_1" version="1.1" viewBox="0 0 75 75" width="75px" xml:space="preserve" xmlns="http://www.w3.org/2000/svg" xmlns:xlink="http://www.w3.org/1999/xlink"><g><g><g><path d="M49.019,51.742h-4.61c-0.25,0-0.483-0.124-0.622-0.331c-1.342-1.994-3.545-3.185-5.893-3.185     c-2.385,0-4.605,1.19-5.937,3.183c-0.139,0.208-0.373,0.333-0.624,0.333H18.509c-5.587,0-10.133-4.546-10.133-10.135     c0-4.983,0-10.137,5.955-10.137h20.141c2.988,0,4.947-0.712,5.823-2.117c1.346-2.16-0.197-5.361-0.213-5.393l-3.862-7.693     c-0.117-0.232-0.104-0.509,0.032-0.73c0.136-0.222,0.378-0.356,0.638-0.356h31.936c0.247,0,0.478,0.122,0.618,0.325     s0.17,0.463,0.082,0.694L58.879,43.906C57.819,48.452,53.687,51.742,49.019,51.742z M44.796,50.242h4.222     c4.002,0,7.542-2.839,8.417-6.751c0.014-0.064,0.037-0.125,0.066-0.183l10.232-26.626H38.105l3.32,6.613     c0.082,0.167,1.923,3.995,0.142,6.853c-1.167,1.874-3.555,2.824-7.096,2.824H14.331c-4.257,0-4.455,2.961-4.455,8.637     c0,4.761,3.873,8.635,8.633,8.635h12.435c1.63-2.209,4.199-3.516,6.95-3.516C40.608,46.727,43.16,48.034,44.796,50.242z" fill="#44A4E0"/></g><g><path d="M49.019,51.742h-4.61c-0.25,0-0.483-0.124-0.622-0.331c-1.342-1.994-3.545-3.185-5.893-3.185     c-2.385,0-4.605,1.19-5.937,3.183c-0.139,0.208-0.373,0.333-0.624,0.333H18.509c-5.198,0-9.529-3.893-10.074-9.056     c-0.004-0.039-0.005-0.078-0.003-0.117c0.177-3.448,1.017-6.973,5.899-6.973h20.141c2.814,0,4.719-0.633,5.661-1.882     c0.992-1.315,0.764-3.116,0.399-4.395c-0.045-0.16-0.037-0.33,0.025-0.484c0.846-2.115-0.462-4.848-0.476-4.875l-1.792-3.567     c-0.117-0.232-0.104-0.509,0.032-0.73c0.136-0.222,0.378-0.356,0.638-0.356h28.281c0.247,0,0.479,0.122,0.618,0.325     c0.14,0.204,0.17,0.463,0.082,0.694l-9.062,23.581C57.819,48.452,53.687,51.742,49.019,51.742z M44.796,50.242h4.222     c4.002,0,7.542-2.839,8.417-6.751c0.014-0.064,0.037-0.125,0.066-0.183l8.648-22.501H40.176l1.25,2.488     c0.067,0.138,1.529,3.17,0.614,5.853c0.415,1.589,0.588,3.75-0.709,5.47c-1.24,1.645-3.548,2.479-6.858,2.479H14.331     c-3.024,0-4.179,1.438-4.398,5.491c0.491,4.369,4.167,7.656,8.576,7.656h12.435c1.63-2.209,4.199-3.516,6.95-3.516     C40.608,46.727,43.16,48.034,44.796,50.242z" fill="#44A4E0"/></g><g><path d="M56.854,62.74H11.478c-3.337,0-6.053-2.716-6.053-6.055c0-0.414,0.336-0.75,0.75-0.75     s0.75,0.336,0.75,0.75c0,2.511,2.042,4.555,4.553,4.555h45.377c2.507,0,4.547-2.043,4.547-4.555c0-0.414,0.336-0.75,0.75-0.75     s0.75,0.336,0.75,0.75C62.901,60.024,60.189,62.74,56.854,62.74z" fill="#44A4E0"/></g><g><g><path d="M20.937,62.74c-0.084,0-0.169-0.014-0.252-0.044c-0.39-0.139-0.593-0.568-0.454-0.958l3.932-10.998      c0.139-0.391,0.567-0.594,0.958-0.454c0.39,0.139,0.593,0.568,0.454,0.958l-3.932,10.998      C21.533,62.549,21.245,62.74,20.937,62.74z" fill="#44A4E0"/></g></g><g><g><path d="M23.213,57.242c-0.233,0-0.463-0.109-0.61-0.313c-0.242-0.336-0.165-0.805,0.172-1.046l7.668-5.5      c0.337-0.242,0.806-0.163,1.046,0.172c0.242,0.336,0.165,0.805-0.172,1.046l-7.668,5.5      C23.518,57.197,23.365,57.242,23.213,57.242z" fill="#44A4E0"/></g></g><g><path d="M50.817,39.041c-3.727,0-6.757-3.029-6.757-6.752c0-4.549,3.701-8.25,8.25-8.25     c5.582,0,10.123,4.544,10.123,10.129c0,0.414-0.336,0.75-0.75,0.75s-0.75-0.336-0.75-0.75c0-4.758-3.868-8.629-8.623-8.629     c-3.722,0-6.75,3.028-6.75,6.75c0,2.896,2.358,5.252,5.256,5.252c2.229-0.005,4.043-1.823,4.043-4.053     c0-0.414,0.336-0.75,0.75-0.75s0.75,0.336,0.75,0.75C56.358,36.543,53.873,39.034,50.817,39.041z" fill="#44A4E0"/></g><g><path d="M58.173,44.531H36.292c-0.414,0-0.75-0.336-0.75-0.75s0.336-0.75,0.75-0.75h21.881     c0.414,0,0.75,0.336,0.75,0.75S58.587,44.531,58.173,44.531z" fill="#44A4E0"/></g><g><path d="M10.09,44.584c-0.408,0-0.742-0.327-0.75-0.737c-0.007-0.414,0.323-0.755,0.737-0.763l5.912-0.102     c0.423,0.003,0.755,0.323,0.763,0.737c0.007,0.414-0.323,0.755-0.737,0.763l-5.912,0.102     C10.099,44.584,10.095,44.584,10.09,44.584z" fill="#44A4E0"/></g><g><path d="M31.884,44.531h-0.953c-0.414,0-0.75-0.336-0.75-0.75s0.336-0.75,0.75-0.75h0.953     c0.414,0,0.75,0.336,0.75,0.75S32.298,44.531,31.884,44.531z" fill="#44A4E0"/></g><g><path d="M26.642,44.531h-0.955c-0.414,0-0.75-0.336-0.75-0.75s0.336-0.75,0.75-0.75h0.955     c0.414,0,0.75,0.336,0.75,0.75S27.056,44.531,26.642,44.531z" fill="#44A4E0"/></g><g><path d="M21.397,44.531h-0.953c-0.414,0-0.75-0.336-0.75-0.75s0.336-0.75,0.75-0.75h0.953     c0.414,0,0.75,0.336,0.75,0.75S21.812,44.531,21.397,44.531z" fill="#44A4E0"/></g></g><g><g><path d="M28.134,23.727H7.429c-0.414,0-0.75-0.336-0.75-0.75c0-4.412,3.589-8.002,8-8.002     c0.113,0,0.226,0.002,0.337,0.007c1.148-1.69,3.058-2.722,5.093-2.722c3.218,0,5.896,2.515,6.151,5.685     c1.65,1.161,2.623,3.014,2.623,5.032C28.884,23.391,28.548,23.727,28.134,23.727z M8.222,22.227h19.102     c-0.215-1.326-0.999-2.498-2.185-3.226c-0.219-0.134-0.354-0.372-0.358-0.628c-0.037-2.543-2.132-4.612-4.671-4.612     c-1.657,0-3.207,0.91-4.045,2.375c-0.146,0.256-0.432,0.404-0.723,0.374c-0.218-0.021-0.438-0.034-0.662-0.034     C11.348,16.475,8.595,18.993,8.222,22.227z" fill="#44A4E0"/></g></g><g><g><path d="M56.38,62.74c-0.007,0-0.013-0.001-0.02,0H26.207c-0.414,0-0.75-0.336-0.75-0.75     c0-2.879,1.416-5.519,3.808-7.139c0.28-4.516,4.068-8.125,8.629-8.125c2.915,0,5.646,1.511,7.24,3.974     c0.221-0.013,0.444-0.019,0.668-0.019c6.176,0,11.211,4.977,11.307,11.13c0.014,0.058,0.021,0.117,0.021,0.179     C57.13,62.404,56.794,62.74,56.38,62.74z M26.996,61.24h28.586c-0.384-5.06-4.624-9.059-9.78-9.059     c-0.336,0-0.667,0.016-0.995,0.049c-0.298,0.034-0.579-0.117-0.726-0.374c-1.28-2.239-3.651-3.63-6.188-3.63     c-3.882,0-7.087,3.165-7.145,7.054c-0.004,0.257-0.139,0.494-0.357,0.628C28.459,57.095,27.227,59.05,26.996,61.24z" fill="#44A4E0"/></g></g></g></svg>