<?xml version="1.0" ?><!DOCTYPE svg  PUBLIC '-//W3C//DTD SVG 1.1//EN'  'http://www.w3.org/Graphics/SVG/1.1/DTD/svg11.dtd'><svg enable-background="new 0 0 75 75" height="75px" id="Layer_1" version="1.1" viewBox="0 0 75 75" width="75px" xml:space="preserve" xmlns="http://www.w3.org/2000/svg" xmlns:xlink="http://www.w3.org/1999/xlink"><g><g><g><g><g><g><g><path d="M26.792,13.885L26.792,13.885c-0.199,0-0.39-0.079-0.53-0.22l-2.778-2.779         c-0.293-0.293-0.293-0.768,0-1.061c0.293-0.293,0.768-0.293,1.061,0l2.248,2.249l2.25-2.249c0.293-0.293,0.768-0.293,1.061,0         s0.293,0.768,0,1.061l-2.78,2.779C27.182,13.806,26.991,13.885,26.792,13.885z" fill="#44A4E0"/></g><g><path d="M32.351,13.885L32.351,13.885c-0.199,0-0.39-0.079-0.53-0.22l-2.778-2.779         c-0.293-0.293-0.293-0.768,0-1.061c0.293-0.293,0.768-0.293,1.061,0l2.248,2.249L34.6,9.825c0.293-0.293,0.768-0.293,1.061,0         s0.293,0.768,0,1.061l-2.779,2.779C32.74,13.806,32.549,13.885,32.351,13.885z" fill="#44A4E0"/></g><g><path d="M37.909,13.885c-0.192,0-0.384-0.073-0.53-0.22L34.6,10.886c-0.293-0.293-0.293-0.768,0-1.061         s0.768-0.293,1.061,0l2.249,2.249l2.249-2.249c0.293-0.293,0.768-0.293,1.061,0s0.293,0.768,0,1.061l-2.779,2.779         C38.293,13.812,38.101,13.885,37.909,13.885z" fill="#44A4E0"/></g></g></g><g><g><g><path d="M43.468,13.885c-0.192,0-0.384-0.073-0.53-0.22l-2.779-2.779c-0.293-0.293-0.293-0.768,0-1.061         s0.768-0.293,1.061,0l2.249,2.249l2.249-2.249c0.293-0.293,0.768-0.293,1.061,0s0.293,0.768,0,1.061l-2.779,2.779         C43.852,13.812,43.66,13.885,43.468,13.885z" fill="#44A4E0"/></g><g><path d="M49.025,13.885L49.025,13.885c-0.199,0-0.39-0.079-0.53-0.22l-2.778-2.779         c-0.293-0.293-0.293-0.768,0-1.061c0.293-0.293,0.768-0.293,1.061,0l2.248,2.249l2.25-2.249c0.293-0.293,0.768-0.293,1.061,0         s0.293,0.768,0,1.061l-2.78,2.779C49.415,13.806,49.224,13.885,49.025,13.885z" fill="#44A4E0"/></g><g><path d="M54.585,13.885c-0.199,0-0.39-0.079-0.53-0.22l-2.779-2.779c-0.293-0.293-0.293-0.768,0-1.061         s0.768-0.293,1.061,0l2.249,2.249l2.248-2.249c0.293-0.293,0.768-0.293,1.061,0c0.293,0.292,0.293,0.768,0,1.061         l-2.778,2.779C54.975,13.806,54.784,13.885,54.585,13.885z" fill="#44A4E0"/></g></g></g></g><g><g><g><g><path d="         M29.572,14.803" fill="none" stroke="#44A4E0" stroke-linecap="round" stroke-linejoin="round" stroke-miterlimit="10" stroke-width="1.5"/></g><g><path d="M26.792,18.332c-0.192,0-0.384-0.073-0.531-0.22l-0.99-0.992c-0.292-0.293-0.292-0.768,0.001-1.061         c0.293-0.292,0.768-0.293,1.061,0.001l0.99,0.992c0.292,0.293,0.292,0.768-0.001,1.061         C27.175,18.259,26.984,18.332,26.792,18.332z" fill="#44A4E0"/></g><g><path d="         M35.13,14.803" fill="none" stroke="#44A4E0" stroke-linecap="round" stroke-linejoin="round" stroke-miterlimit="10" stroke-width="1.5"/></g><g><path d="M32.351,18.332c-0.192,0-0.384-0.073-0.53-0.22l-2.778-2.779c-0.293-0.293-0.293-0.768,0-1.061         c0.293-0.293,0.768-0.293,1.061,0l2.778,2.779c0.293,0.293,0.293,0.768,0,1.061C32.734,18.259,32.542,18.332,32.351,18.332z" fill="#44A4E0"/></g><g><path d="         M40.688,14.803" fill="none" stroke="#44A4E0" stroke-linecap="round" stroke-linejoin="round" stroke-miterlimit="10" stroke-width="1.5"/></g><g><path d="M37.909,18.332c-0.192,0-0.384-0.073-0.53-0.22L34.6,15.333c-0.293-0.293-0.293-0.768,0-1.061         s0.768-0.293,1.061,0l2.779,2.779c0.293,0.293,0.293,0.768,0,1.061C38.293,18.259,38.101,18.332,37.909,18.332z" fill="#44A4E0"/></g></g></g><g><g><g><path d="         M46.247,14.803" fill="none" stroke="#44A4E0" stroke-linecap="round" stroke-linejoin="round" stroke-miterlimit="10" stroke-width="1.5"/></g><g><path d="M43.468,18.332c-0.192,0-0.384-0.073-0.53-0.22l-2.779-2.779c-0.293-0.293-0.293-0.768,0-1.061         s0.768-0.293,1.061,0l2.779,2.779c0.293,0.293,0.293,0.768,0,1.061C43.852,18.259,43.66,18.332,43.468,18.332z" fill="#44A4E0"/></g><g><path d="         M51.806,14.803" fill="none" stroke="#44A4E0" stroke-linecap="round" stroke-linejoin="round" stroke-miterlimit="10" stroke-width="1.5"/></g><g><path d="M49.025,18.332c-0.192,0-0.384-0.073-0.53-0.22l-2.778-2.779c-0.293-0.293-0.293-0.768,0-1.061         c0.293-0.293,0.768-0.293,1.061,0l2.778,2.779c0.293,0.293,0.293,0.768,0,1.061C49.409,18.259,49.217,18.332,49.025,18.332z" fill="#44A4E0"/></g><g><path d="         M57.363,14.803" fill="none" stroke="#44A4E0" stroke-linecap="round" stroke-linejoin="round" stroke-miterlimit="10" stroke-width="1.5"/></g><g><path d="M54.585,18.332c-0.192,0-0.384-0.073-0.53-0.22l-2.779-2.779c-0.293-0.293-0.293-0.768,0-1.061         s0.768-0.293,1.061,0l2.779,2.779c0.293,0.293,0.293,0.768,0,1.061C54.969,18.259,54.777,18.332,54.585,18.332z" fill="#44A4E0"/></g></g></g></g></g></g><g><path d="M42.345,63.061c-0.064,0-0.129-0.008-0.192-0.025c-0.258-0.069-0.46-0.27-0.531-0.527    c-0.232-0.851-0.351-1.709-0.351-2.549v-7.625c0-5.318,4.326-9.645,9.644-9.645h3.188c0.414,0,0.75,0.336,0.75,0.75v1.352    c0,2.889-0.877,5.677-2.537,8.063c-0.594,0.958-1.244,1.79-1.964,2.51l-7.477,7.477C42.732,62.983,42.541,63.061,42.345,63.061z     M50.914,44.189c-4.49,0-8.144,3.654-8.144,8.145v7.625c0,0.271,0.015,0.545,0.044,0.821l6.477-6.476    c0.638-0.638,1.218-1.382,1.772-2.274c1.505-2.166,2.29-4.658,2.29-7.239v-0.602H50.914z" fill="#44A4E0"/></g><g><g><path d="M55.792,21.301H25.585c-1.678,0-3.043-1.365-3.043-3.043v-9.73c0-1.679,1.365-3.045,3.043-3.045h30.207     c1.678,0,3.044,1.366,3.044,3.045v9.73C58.836,19.936,57.47,21.301,55.792,21.301z M25.585,6.982     c-0.851,0-1.543,0.693-1.543,1.545v9.73c0,0.851,0.692,1.543,1.543,1.543h30.207c0.852,0,1.544-0.692,1.544-1.543v-9.73     c0-0.852-0.692-1.545-1.544-1.545H25.585z" fill="#44A4E0"/></g><g><path d="M30.33,69.518c-3.784,0-7.341-1.474-10.017-4.15c-2.676-2.675-4.149-6.232-4.149-10.017     c0-3.784,1.474-7.341,4.149-10.015l6.205-6.208V20.551c0-0.414,0.336-0.75,0.75-0.75h26.834c0.414,0,0.75,0.336,0.75,0.75v24.24     c0,2.889-0.877,5.677-2.537,8.063c-0.594,0.958-1.244,1.79-1.964,2.51L40.347,65.368C37.671,68.044,34.114,69.518,30.33,69.518z      M28.019,21.301v18.139c0,0.199-0.079,0.39-0.22,0.53l-6.425,6.428c-2.392,2.391-3.71,5.571-3.71,8.954     c0,3.384,1.318,6.564,3.71,8.956c2.393,2.393,5.573,3.71,8.956,3.71s6.563-1.318,8.956-3.71l10.005-10.004     c0.638-0.638,1.218-1.382,1.772-2.274c1.505-2.166,2.29-4.658,2.29-7.239v-23.49H28.019z" fill="#44A4E0"/></g><g><path d="M27.269,44.189c-0.414,0-0.75-0.336-0.75-0.75V24.551c0-0.414,0.336-0.75,0.75-0.75s0.75,0.336,0.75,0.75     v18.889C28.019,43.854,27.683,44.189,27.269,44.189z" fill="#44A4E0"/></g></g><g><g><path d="M43.794,53.625h-3.625c-0.414,0-0.75-0.336-0.75-0.75s0.336-0.75,0.75-0.75h3.625     c0.414,0,0.75,0.336,0.75,0.75S44.208,53.625,43.794,53.625z" fill="#44A4E0"/></g><g><path d="M43.794,56.701h-3.625c-0.414,0-0.75-0.336-0.75-0.75s0.336-0.75,0.75-0.75h3.625     c0.414,0,0.75,0.336,0.75,0.75S44.208,56.701,43.794,56.701z" fill="#44A4E0"/></g></g><g><g><path d="M50.606,46.002c-0.414,0-0.75-0.336-0.75-0.75v-3.623c0-0.414,0.336-0.75,0.75-0.75s0.75,0.336,0.75,0.75     v3.623C51.356,45.666,51.021,46.002,50.606,46.002z" fill="#44A4E0"/></g><g><path d="M47.53,46.002c-0.414,0-0.75-0.336-0.75-0.75v-3.623c0-0.414,0.336-0.75,0.75-0.75s0.75,0.336,0.75,0.75     v3.623C48.28,45.666,47.944,46.002,47.53,46.002z" fill="#44A4E0"/></g></g><g><g><g><g><path d="M32.217,30.234c-0.414,0-0.75-0.336-0.75-0.75c0-1.981-1.612-3.594-3.594-3.594       c-0.414,0-0.75-0.336-0.75-0.75s0.336-0.75,0.75-0.75c2.809,0,5.094,2.285,5.094,5.094       C32.967,29.898,32.631,30.234,32.217,30.234z" fill="#44A4E0"/></g><g><path d="M32.217,30.234c-0.414,0-0.75-0.336-0.75-0.75c0-2.809,2.285-5.094,5.094-5.094       c0.414,0,0.75,0.336,0.75,0.75s-0.336,0.75-0.75,0.75c-1.981,0-3.594,1.612-3.594,3.594       C32.967,29.898,32.631,30.234,32.217,30.234z" fill="#44A4E0"/></g></g><g><path d="M32.217,30.234c-0.66,0-1.196-0.536-1.196-1.195c0-0.66,0.537-1.197,1.196-1.197      s1.196,0.537,1.196,1.197C33.413,29.698,32.876,30.234,32.217,30.234z M32.217,28.734c-0.167,0-0.304,0.137-0.304,0.305      c0,0.167,0.136,0.303,0.304,0.303s0.304-0.136,0.304-0.303C32.521,28.871,32.384,28.734,32.217,28.734z" fill="#44A4E0"/></g></g><g><g><g><path d="M40.904,30.234c-0.414,0-0.75-0.336-0.75-0.75c0-1.981-1.612-3.594-3.594-3.594       c-0.414,0-0.75-0.336-0.75-0.75s0.336-0.75,0.75-0.75c2.809,0,5.094,2.285,5.094,5.094       C41.654,29.898,41.318,30.234,40.904,30.234z" fill="#44A4E0"/></g><g><path d="M40.904,30.234c-0.414,0-0.75-0.336-0.75-0.75c0-2.809,2.285-5.094,5.093-5.094       c0.414,0,0.75,0.336,0.75,0.75s-0.336,0.75-0.75,0.75c-1.981,0-3.593,1.612-3.593,3.594       C41.654,29.898,41.318,30.234,40.904,30.234z" fill="#44A4E0"/></g></g><g><path d="M40.904,30.234c-0.66,0-1.196-0.536-1.196-1.195c0-0.66,0.537-1.197,1.196-1.197      s1.196,0.537,1.196,1.197C42.101,29.698,41.564,30.234,40.904,30.234z M40.904,28.734c-0.167,0-0.304,0.137-0.304,0.305      c0,0.167,0.136,0.303,0.304,0.303s0.304-0.136,0.304-0.303C41.208,28.871,41.072,28.734,40.904,28.734z" fill="#44A4E0"/></g></g><g><g><g><path d="M49.592,30.234c-0.414,0-0.75-0.336-0.75-0.75c0-1.981-1.613-3.594-3.595-3.594       c-0.414,0-0.75-0.336-0.75-0.75s0.336-0.75,0.75-0.75c2.809,0,5.095,2.285,5.095,5.094       C50.342,29.898,50.006,30.234,49.592,30.234z" fill="#44A4E0"/></g><g><path d="M49.592,30.234c-0.414,0-0.75-0.336-0.75-0.75c0-2.809,2.285-5.094,5.094-5.094       c0.414,0,0.75,0.336,0.75,0.75s-0.336,0.75-0.75,0.75c-1.981,0-3.594,1.612-3.594,3.594       C50.342,29.898,50.006,30.234,49.592,30.234z" fill="#44A4E0"/></g></g><g><path d="M49.592,30.234c-0.66,0-1.196-0.536-1.196-1.195c0-0.66,0.537-1.197,1.196-1.197      s1.196,0.537,1.196,1.197C50.788,29.698,50.251,30.234,49.592,30.234z M49.592,28.734c-0.167,0-0.304,0.137-0.304,0.305      c0,0.167,0.136,0.303,0.304,0.303s0.304-0.136,0.304-0.303C49.896,28.871,49.759,28.734,49.592,28.734z" fill="#44A4E0"/></g></g></g><g><g><g><g><path d="M32.217,38.277c-0.414,0-0.75-0.336-0.75-0.75c0-1.981-1.612-3.594-3.594-3.594       c-0.414,0-0.75-0.336-0.75-0.75s0.336-0.75,0.75-0.75c2.809,0,5.094,2.285,5.094,5.094       C32.967,37.941,32.631,38.277,32.217,38.277z" fill="#44A4E0"/></g><g><path d="M32.217,38.277c-0.414,0-0.75-0.336-0.75-0.75c0-2.809,2.285-5.094,5.094-5.094       c0.414,0,0.75,0.336,0.75,0.75s-0.336,0.75-0.75,0.75c-1.981,0-3.594,1.612-3.594,3.594       C32.967,37.941,32.631,38.277,32.217,38.277z" fill="#44A4E0"/></g></g><g><path d="M32.217,38.277c-0.66,0-1.196-0.537-1.196-1.197c0-0.659,0.537-1.195,1.196-1.195      s1.196,0.536,1.196,1.195C33.413,37.74,32.876,38.277,32.217,38.277z M32.217,36.777c-0.167,0-0.304,0.136-0.304,0.303      c0,0.168,0.136,0.305,0.304,0.305s0.304-0.137,0.304-0.305C32.521,36.913,32.384,36.777,32.217,36.777z" fill="#44A4E0"/></g></g><g><g><g><path d="M40.904,38.277c-0.414,0-0.75-0.336-0.75-0.75c0-1.981-1.612-3.594-3.594-3.594       c-0.414,0-0.75-0.336-0.75-0.75s0.336-0.75,0.75-0.75c2.809,0,5.094,2.285,5.094,5.094       C41.654,37.941,41.318,38.277,40.904,38.277z" fill="#44A4E0"/></g><g><path d="M40.904,38.277c-0.414,0-0.75-0.336-0.75-0.75c0-2.809,2.285-5.094,5.093-5.094       c0.414,0,0.75,0.336,0.75,0.75s-0.336,0.75-0.75,0.75c-1.981,0-3.593,1.612-3.593,3.594       C41.654,37.941,41.318,38.277,40.904,38.277z" fill="#44A4E0"/></g></g><g><path d="M40.904,38.277c-0.66,0-1.196-0.537-1.196-1.197c0-0.659,0.537-1.195,1.196-1.195      s1.196,0.536,1.196,1.195C42.101,37.74,41.564,38.277,40.904,38.277z M40.904,36.777c-0.167,0-0.304,0.136-0.304,0.303      c0,0.168,0.136,0.305,0.304,0.305s0.304-0.137,0.304-0.305C41.208,36.913,41.072,36.777,40.904,36.777z" fill="#44A4E0"/></g></g><g><g><g><path d="M49.592,38.277c-0.414,0-0.75-0.336-0.75-0.75c0-1.981-1.613-3.594-3.595-3.594       c-0.414,0-0.75-0.336-0.75-0.75s0.336-0.75,0.75-0.75c2.809,0,5.095,2.285,5.095,5.094       C50.342,37.941,50.006,38.277,49.592,38.277z" fill="#44A4E0"/></g><g><path d="M49.592,38.277c-0.414,0-0.75-0.336-0.75-0.75c0-2.809,2.285-5.094,5.094-5.094       c0.414,0,0.75,0.336,0.75,0.75s-0.336,0.75-0.75,0.75c-1.981,0-3.594,1.612-3.594,3.594       C50.342,37.941,50.006,38.277,49.592,38.277z" fill="#44A4E0"/></g></g><g><path d="M49.592,38.277c-0.66,0-1.196-0.537-1.196-1.197c0-0.659,0.537-1.195,1.196-1.195      s1.196,0.536,1.196,1.195C50.788,37.74,50.251,38.277,49.592,38.277z M49.592,36.777c-0.167,0-0.304,0.136-0.304,0.303      c0,0.168,0.136,0.305,0.304,0.305s0.304-0.137,0.304-0.305C49.896,36.913,49.759,36.777,49.592,36.777z" fill="#44A4E0"/></g></g></g></g></svg>